<?xml version="1.0" standalone="no"?>
<!DOCTYPE svg PUBLIC "-//W3C//DTD SVG 20010904//EN"
 "http://www.w3.org/TR/2001/REC-SVG-20010904/DTD/svg10.dtd">
<svg version="1.0" xmlns="http://www.w3.org/2000/svg"
 width="176.000000pt" height="176.000000pt" viewBox="0 0 176.000000 176.000000"
 preserveAspectRatio="xMidYMid meet">

<g transform="translate(0.000000,176.000000) scale(0.100000,-0.100000)"
fill="#000000" stroke="none">
<path d="M0 880 l0 -880 880 0 880 0 0 880 0 880 -880 0 -880 0 0 -880z m1214
609 c177 -100 338 -192 359 -205 l37 -24 -2 -407 -3 -406 -70 -42 c-58 -34
-74 -40 -92 -32 -13 6 -23 13 -23 16 0 3 24 19 53 35 96 53 87 10 87 436 l0
377 -336 187 c-184 103 -339 186 -343 184 -33 -13 -371 -205 -371 -210 0 -9
132 -88 147 -88 5 0 57 27 114 60 57 33 108 60 114 60 10 0 90 -45 378 -212
l138 -80 -143 -83 c-100 -59 -147 -81 -158 -75 -8 4 -112 65 -230 135 l-215
127 -35 -21 c-19 -11 -65 -38 -102 -58 l-68 -38 0 -107 c0 -60 3 -108 6 -108
3 0 52 24 108 54 l101 55 210 -130 c139 -85 217 -127 230 -124 11 2 74 34 140
69 66 36 123 66 128 66 4 0 7 -71 7 -158 0 -184 10 -164 -122 -238 -49 -26
-88 -51 -88 -56 0 -4 45 -34 100 -65 55 -32 100 -60 100 -63 0 -8 -474 -275
-487 -274 -12 2 -621 339 -686 380 l-37 24 0 409 0 409 69 41 c76 45 88 48
116 27 17 -12 13 -17 -53 -56 l-72 -42 0 -382 0 -381 334 -187 333 -188 187
106 c102 58 186 110 186 115 0 4 -35 28 -77 53 l-77 45 -70 -40 c-39 -22 -90
-50 -113 -61 l-41 -21 -256 144 c-140 79 -255 146 -256 149 0 3 30 21 68 40
37 19 98 52 136 72 38 21 73 38 77 38 9 0 218 -120 376 -216 40 -24 75 -44 77
-44 11 0 207 113 212 122 7 11 6 200 -1 206 -2 2 -53 -22 -113 -54 l-109 -58
-210 127 c-116 70 -216 127 -222 127 -7 0 -65 -29 -130 -65 -65 -36 -124 -65
-130 -65 -8 0 -11 46 -9 168 l3 167 97 55 c54 30 96 59 95 64 -2 5 -43 33 -93
63 -49 29 -90 57 -92 61 -2 8 462 269 482 271 5 1 153 -80 330 -180z"/>
<path d="M800 1326 c-41 -24 -75 -47 -77 -52 -3 -9 374 -237 392 -237 14 0
175 94 175 102 0 8 -393 231 -405 230 -6 0 -44 -19 -85 -43z"/>
<path d="M568 639 c-43 -23 -78 -45 -78 -49 0 -4 89 -58 197 -120 l197 -113
82 44 c45 24 81 46 78 50 -2 3 -45 30 -96 59 -51 29 -137 80 -191 112 -54 32
-101 58 -105 58 -4 0 -42 -19 -84 -41z"/>
</g>
</svg>
